<svg 
 xmlns="http://www.w3.org/2000/svg"
 xmlns:xlink="http://www.w3.org/1999/xlink"
 width="21px" height="18px">
<path fill-rule="evenodd"  fill="rgb(255, 255, 255)"
 d="M13.999,17.999 L6.999,17.999 L6.999,16.999 L13.999,16.999 L13.999,17.999 L13.999,17.999 L13.999,17.999 ZM19.999,14.999 L0.999,14.999 C0.123,14.996 0.2,13.875 0.0,12.999 L0.0,1.999 C0.2,1.124 0.123,0.2 0.999,0.0 L19.999,0.0 C20.875,0.2 20.997,1.123 20.999,1.999 L20.999,12.999 C20.997,13.874 20.429,14.943 19.552,14.946 L19.553,14.946 L19.999,14.999 ZM1.999,0.999 C1.631,1.0 0.999,1.630 0.999,1.999 L0.999,12.999 C0.999,13.367 1.362,13.954 1.999,13.999 L18.999,13.999 C19.817,13.998 19.999,13.367 19.999,12.999 L19.999,1.999 C19.999,1.631 19.862,1.0 18.999,0.999 L0.999,0.999 L0.999,0.999 L1.999,0.999 Z"/>
</svg>