<svg 
 xmlns="http://www.w3.org/2000/svg"
 xmlns:xlink="http://www.w3.org/1999/xlink"
 width="15px" height="15px" fill="white">
<path
 d="M10.934,10.349 L10.950,10.328 C11.30,10.236 11.108,10.142 11.182,10.46 L11.200,10.23 L11.229,9.986 C12.47,8.900 12.481,7.604 12.481,6.237 C12.481,4.568 11.831,3.1 10.652,1.821 C9.473,0.643 7.905,0.5 6.237,0.5 C4.569,0.5 3.1,0.643 1.822,1.821 C0.642,3.1 0.5,4.568 0.5,6.237 C0.5,7.904 0.642,9.472 1.822,10.651 C3.1,11.831 4.569,12.481 6.237,12.481 C7.614,12.481 8.969,12.18 10.53,11.176 C10.145,11.106 10.237,11.29 10.330,10.950 L10.345,10.937 L10.364,10.920 C10.473,10.824 10.566,10.737 10.652,10.651 C10.740,10.565 10.827,10.472 10.916,10.368 L10.934,10.349 ZM9.680,9.680 C8.760,10.599 7.537,11.106 6.236,11.106 C4.936,11.106 3.714,10.599 2.794,9.680 C1.875,8.760 1.368,7.538 1.368,6.240 C1.368,4.936 1.875,3.713 2.793,2.794 C3.713,1.873 4.936,1.367 6.237,1.367 C7.537,1.367 8.760,1.873 9.680,2.793 C10.600,3.713 11.106,4.936 11.106,6.237 C11.106,7.537 10.600,8.760 9.680,9.680 ZM14.993,13.506 L14.809,13.323 L14.810,13.322 L12.790,11.302 C12.781,11.291 12.767,11.290 12.758,11.290 C12.750,11.290 12.739,11.291 12.727,11.302 L12.660,11.370 L11.705,12.324 L11.303,12.727 C11.293,12.736 11.289,12.747 11.289,12.760 C11.289,12.770 11.294,12.780 11.303,12.789 L13.505,14.994 C13.512,15.1 13.524,15.5 13.538,15.5 C13.543,15.5 13.557,15.3 13.567,14.994 L14.280,14.280 L14.993,13.566 C15.0,13.558 15.5,13.548 15.5,13.536 C15.5,13.523 15.0,13.513 14.993,13.506 ZM11.930,11.188 L11.464,10.721 C11.444,10.744 11.424,10.767 11.405,10.790 L11.397,10.798 L11.385,10.812 C11.286,10.924 11.196,11.19 11.108,11.107 C11.21,11.194 10.928,11.282 10.815,11.383 L10.812,11.386 L10.800,11.394 C10.774,11.418 10.748,11.441 10.721,11.464 L11.188,11.931 L11.559,11.559 L11.930,11.188 Z"/>
</svg>